<!DOCTYPE svg PUBLIC "-//W3C//DTD SVG 1.1//EN" "http://www.w3.org/Graphics/SVG/1.1/DTD/svg11.dtd">
<!-- Uploaded to: SVG Repo, www.svgrepo.com, Transformed by: SVG Repo Mixer Tools -->
<svg fill="#ffffff" height="800px" width="800px" version="1.1" id="Capa_1" xmlns="http://www.w3.org/2000/svg" xmlns:xlink="http://www.w3.org/1999/xlink" viewBox="0 0 510.995 510.995" xml:space="preserve" stroke="#ffffff">
<g id="SVGRepo_bgCarrier" stroke-width="0"/>
<g id="SVGRepo_tracerCarrier" stroke-linecap="round" stroke-linejoin="round"/>
<g id="SVGRepo_iconCarrier"> <g> <path d="M211.498,128c-4.142,0-7.5,3.358-7.5,7.5v111.997c0,4.142,3.358,7.5,7.5,7.5s7.5-3.358,7.5-7.5V135.5 C218.998,131.358,215.64,128,211.498,128z"/> <path d="M299.498,47.997c-4.142,0-7.5,3.358-7.5,7.5V295.5c0,4.142,3.358,7.5,7.5,7.5s7.5-3.358,7.5-7.5V55.497 C306.998,51.355,303.64,47.997,299.498,47.997z"/> <path d="M211.498,272c-4.142,0-7.5,3.358-7.5,7.5v16c0,4.142,3.358,7.5,7.5,7.5s7.5-3.358,7.5-7.5v-16 C218.998,275.358,215.64,272,211.498,272z"/> <path d="M211.498,367c1.97,0,3.91-0.8,5.3-2.2c1.4-1.39,2.2-3.33,2.2-5.3c0-1.97-0.8-3.91-2.2-5.3c-1.39-1.4-3.32-2.2-5.3-2.2 s-3.91,0.8-5.3,2.2c-1.4,1.39-2.2,3.33-2.2,5.3c0,1.97,0.8,3.91,2.2,5.3C207.587,366.2,209.527,367,211.498,367z"/> <path d="M211.498,479c1.97,0,3.91-0.8,5.3-2.2c1.4-1.39,2.2-3.33,2.2-5.3c0-1.97-0.8-3.91-2.2-5.3c-1.39-1.4-3.32-2.2-5.3-2.2 s-3.91,0.8-5.3,2.2c-1.4,1.39-2.2,3.33-2.2,5.3c0,1.97,0.8,3.91,2.2,5.3C207.587,478.2,209.527,479,211.498,479z"/> <path d="M267.498,0h-88c-4.142,0-7.5,3.358-7.5,7.5v320v142.625c0,20.912,15.657,38.785,35.645,40.691 c1.259,0.12,2.517,0.179,3.771,0.179c9.821,0,19.365-3.64,26.649-10.263c8.22-7.474,12.935-18.128,12.935-29.232v-104 c0-4.687,3.813-8.5,8.5-8.5h8c12.958,0,23.5-10.542,23.5-23.5V335h40.5c4.142,0,7.5-3.358,7.5-7.5v-256 C338.998,32.075,306.923,0,267.498,0z M275.998,335.5c0,4.687-3.813,8.5-8.5,8.5h-8c-12.958,0-23.5,10.542-23.5,23.5v104 c0,6.887-2.925,13.497-8.025,18.134c-5.169,4.7-11.885,6.921-18.906,6.25c-12.375-1.18-22.069-12.495-22.069-25.759V335h89V335.5z M323.998,320h-137V15h80.5c31.154,0,56.5,25.346,56.5,56.5V320z"/> </g> </g>
</svg>